<svg version="1.1" xmlns="http://www.w3.org/2000/svg" viewBox="0 0 1248.4375 465.5" width="1248.4375" height="465.5">
  <!-- svg-source:excalidraw -->
  
  <defs>
    <style class="style-fonts">
      @font-face {
        font-family: "Virgil";
        src: url("https://www.blocksandarrows.com//dist/excalidraw-assets/Virgil.woff2");
      }
      @font-face {
        font-family: "Cascadia";
        src: url("https://www.blocksandarrows.com//dist/excalidraw-assets/Cascadia.woff2");
      }
      @font-face {
        font-family: "Assistant";
        src: url("https://www.blocksandarrows.com//dist/excalidraw-assets/Assistant-Regular.woff2");
      }
    </style>
    
  </defs>
  <rect x="0" y="0" width="1248.4375" height="465.5" fill="#ffffff"></rect><g stroke-linecap="round" transform="translate(312.6666679382324 10) rotate(0 80.44999694824219 26.25)"><path d="M-1.73 0.98 L162.1 0.54 L161.71 51.08 L-0.97 52.99" stroke="none" stroke-width="0" fill="#fe979b"></path><path d="M0 0 C32.94 2.21, 68.36 2.09, 160.9 0 M0 0 C34.54 0.4, 69.26 -0.24, 160.9 0 M160.9 0 C160.73 21.41, 160.91 40.7, 160.9 52.5 M160.9 0 C161.41 20.02, 161.49 38.7, 160.9 52.5 M160.9 52.5 C109.98 52.15, 57.01 50.73, 0 52.5 M160.9 52.5 C126.47 50.92, 90.32 52.15, 0 52.5 M0 52.5 C-1.78 36.47, -1.8 24.75, 0 0 M0 52.5 C0.3 37.89, 0.38 23.31, 0 0" stroke="#1e1e1e" stroke-width="2" fill="none"></path></g><g stroke-linecap="round" transform="translate(256.4624938964844 190) rotate(0 87.39167022705078 26.25)"><path d="M1.2 0.54 L175.59 -1.42 L173.82 52.99 L-0.13 53.93" stroke="none" stroke-width="0" fill="#fe979b"></path><path d="M0 0 C43.35 0.07, 87.62 0.66, 174.78 0 M0 0 C46.11 -0.52, 93.61 -0.48, 174.78 0 M174.78 0 C175.25 18.13, 176.27 40.03, 174.78 52.5 M174.78 0 C174.89 11.65, 175.01 23.15, 174.78 52.5 M174.78 52.5 C121.28 50.27, 66.58 53.94, 0 52.5 M174.78 52.5 C130.41 51.6, 87.17 51.81, 0 52.5 M0 52.5 C-1.08 41.76, -0.15 26.96, 0 0 M0 52.5 C0.12 38.87, -0.92 26.63, 0 0" stroke="#1e1e1e" stroke-width="2" fill="none"></path></g><g stroke-linecap="round" transform="translate(953.841667175293 199) rotate(0 117.94166564941406 26.25)"><path d="M0.54 0.81 L234.47 -0.97 L236.38 52.37 L1.43 51.7" stroke="none" stroke-width="0" fill="#fe979b"></path><path d="M0 0 C49.59 -0.12, 98.53 0.71, 235.88 0 M0 0 C65.47 1.23, 131.64 0.95, 235.88 0 M235.88 0 C235.08 17.77, 237.9 31.24, 235.88 52.5 M235.88 0 C235.87 16.07, 235.43 31.74, 235.88 52.5 M235.88 52.5 C152.86 50.88, 74.46 51.43, 0 52.5 M235.88 52.5 C153.08 51.01, 70.08 50.64, 0 52.5 M0 52.5 C1.99 39.98, -0.43 27.53, 0 0 M0 52.5 C-0.32 35.37, 0.62 20.56, 0 0" stroke="#1e1e1e" stroke-width="2" fill="none"></path></g><g stroke-linecap="round" transform="translate(641.1416625976562 127) rotate(0 113.34166717529297 26.25)"><path d="M0.81 -1.42 L225.72 0.49 L226.56 53.93 L-0.8 54.03" stroke="none" stroke-width="0" fill="#fe979b"></path><path d="M0 0 C83.51 0.35, 169.29 -1.67, 226.68 0 M0 0 C65.22 0.9, 129.33 1.65, 226.68 0 M226.68 0 C228.22 19.14, 225.34 34.58, 226.68 52.5 M226.68 0 C226.96 17.77, 226.78 37.45, 226.68 52.5 M226.68 52.5 C162.14 52.26, 99.58 51.61, 0 52.5 M226.68 52.5 C176.13 53.95, 125.37 52.77, 0 52.5 M0 52.5 C-0.14 39.49, -0.6 28.23, 0 0 M0 52.5 C-0.96 38.52, 0.51 23.84, 0 0" stroke="#1e1e1e" stroke-width="2" fill="none"></path></g><g stroke-linecap="round" transform="translate(938.5874938964844 377) rotate(0 149.9250030517578 26.25)"><path d="M-1.42 -0.97 L300.34 -0.13 L301.28 51.7 L1.53 53.1" stroke="none" stroke-width="0" fill="#fe979b"></path><path d="M0 0 C71.83 1.34, 140.49 1.62, 299.85 0 M0 0 C83.15 -1.66, 167.49 -1.91, 299.85 0 M299.85 0 C301.47 15.36, 299.64 34.67, 299.85 52.5 M299.85 0 C298.97 16.33, 300.15 32.34, 299.85 52.5 M299.85 52.5 C214.68 49.95, 127.61 49.54, 0 52.5 M299.85 52.5 C230.35 51.59, 159.34 51.57, 0 52.5 M0 52.5 C-1.21 39.58, -0.23 28.14, 0 0 M0 52.5 C0.73 36.44, 0.51 19.59, 0 0" stroke="#1e1e1e" stroke-width="2" fill="none"></path></g><g stroke-linecap="round" transform="translate(401.7374954223633 403) rotate(0 88.7750015258789 26.25)"><path d="M-0.97 0.49 L177.42 1.43 L176.75 54.03 L0.6 51.55" stroke="none" stroke-width="0" fill="#fe979b"></path><path d="M0 0 C64.79 -2.14, 130.66 -2.16, 177.55 0 M0 0 C39.69 1.46, 78.4 1.55, 177.55 0 M177.55 0 C176.47 13.29, 178.97 26.71, 177.55 52.5 M177.55 0 C177.71 14.66, 177.45 28.31, 177.55 52.5 M177.55 52.5 C139.72 55.16, 102.34 52.78, 0 52.5 M177.55 52.5 C115.58 52.97, 54.22 52.96, 0 52.5 M0 52.5 C-0.84 32.66, -0.35 12.76, 0 0 M0 52.5 C1.05 39.38, 0.86 25.01, 0 0" stroke="#1e1e1e" stroke-width="2" fill="none"></path></g><g mask="url(#mask-B5yDyKXbUeqllwqY31Sfg)" stroke-linecap="round"><g transform="translate(370.11539737244664 69.88610299546019) rotate(0 -5.493493898018379 59.306948502269904)"><path d="M-0.42 -0.24 C-0.56 6.67, 0.06 22.61, -1.86 42.61 C-3.78 62.62, -10.27 106.98, -11.95 119.77 M1.56 -1.4 C1.33 6.19, -1.05 24.11, -2.9 44.02 C-4.76 63.93, -8.02 105.84, -9.56 118.04" stroke="black" stroke-width="2" fill="none"></path></g><g transform="translate(370.11539737244664 69.88610299546019) rotate(0 -5.493493898018379 59.306948502269904)"><path d="M-16.96 88.97 C-15.46 94.95, -13.89 99.95, -9.56 118.04 M-16.96 88.97 C-14.13 100.74, -11.1 111.51, -9.56 118.04" stroke="black" stroke-width="2" fill="none"></path></g><g transform="translate(370.11539737244664 69.88610299546019) rotate(0 -5.493493898018379 59.306948502269904)"><path d="M3.46 91.01 C0.53 96.48, -2.31 101.04, -9.56 118.04 M3.46 91.01 C-1.79 102.11, -6.87 112.06, -9.56 118.04" stroke="black" stroke-width="2" fill="none"></path></g></g><mask id="mask-B5yDyKXbUeqllwqY31Sfg"><rect x="0" y="0" fill="#fff" width="481.1023851684834" height="288.5"></rect><rect x="267.24166107177734" y="100.25" fill="#000" width="202.4166717529297" height="25" opacity="1"></rect></mask><g mask="url(#mask-_cBFJYuHn8Z4AItRNf_pR)" stroke-linecap="round"><g transform="translate(435.3506076525485 201.30128545452212) rotate(0 102.39552747255388 -28.747282820303653)"><path d="M-0.25 -0.96 C14.67 -9.34, 54.96 -41.06, 89.26 -50.46 C123.56 -59.86, 186.24 -56.23, 205.55 -57.36 M1.82 1.15 C16.7 -7.09, 55.03 -39.88, 88.92 -49.4 C122.82 -58.92, 185.75 -54.87, 205.19 -55.97" stroke="black" stroke-width="2" fill="none"></path></g><g transform="translate(435.3506076525485 201.30128545452212) rotate(0 102.39552747255388 -28.747282820303653)"><path d="M177.04 -45.6 C183.35 -46.51, 191.32 -50.09, 205.19 -55.97 M177.04 -45.6 C185.3 -48.17, 195.47 -52.84, 205.19 -55.97" stroke="black" stroke-width="2" fill="none"></path></g><g transform="translate(435.3506076525485 201.30128545452212) rotate(0 102.39552747255388 -28.747282820303653)"><path d="M176.96 -66.12 C183.26 -61.28, 191.25 -59.1, 205.19 -55.97 M176.96 -66.12 C185.3 -62.3, 195.5 -60.58, 205.19 -55.97" stroke="black" stroke-width="2" fill="none"></path></g></g><mask id="mask-_cBFJYuHn8Z4AItRNf_pR"><rect x="0" y="0" fill="#fff" width="740.1416625976562" height="358.7958510951294"></rect><rect x="482.11666488647455" y="139.25000000000003" fill="#000" width="82.66666412353516" height="25" opacity="1"></rect></mask><g mask="url(#mask-Sw9WZE9FDVaWh30huYISd)" stroke-linecap="round"><g transform="translate(1093.9705069898803 255.5) rotate(0 -1.2236635795105144 58.75000000000003)"><path d="M1.16 -0.91 C1.75 8.73, 4.27 37.11, 3.3 56.89 C2.34 76.66, -3.16 107.5, -4.64 117.74 M0.31 1.22 C0.83 11.17, 3.68 38.84, 2.76 58.5 C1.83 78.16, -3.83 109.56, -5.22 119.19" stroke="black" stroke-width="2" fill="none"></path></g><g transform="translate(1093.9705069898803 255.5) rotate(0 -1.2236635795105144 58.75000000000003)"><path d="M-10.94 89.74 C-11.1 99.17, -7.76 106.7, -5.22 119.19 M-10.94 89.74 C-8.32 98.4, -7.4 109.08, -5.22 119.19" stroke="black" stroke-width="2" fill="none"></path></g><g transform="translate(1093.9705069898803 255.5) rotate(0 -1.2236635795105144 58.75000000000003)"><path d="M9.33 92.95 C3.54 101.69, 1.22 108.32, -5.22 119.19 M9.33 92.95 C5.48 100.73, -0.1 110.38, -5.22 119.19" stroke="black" stroke-width="2" fill="none"></path></g></g><mask id="mask-Sw9WZE9FDVaWh30huYISd"><rect x="0" y="0" fill="#fff" width="1201.5018079621095" height="473.00000000000006"></rect><rect x="1014.9541595458984" y="299.75" fill="#000" width="163.11666870117188" height="25" opacity="1"></rect></mask><g mask="url(#mask-Ki-sb37V1HzQ9Co2lvmJA)" stroke-linecap="round"><g transform="translate(934.0874938964844 404.35081834720324) rotate(0 -175.64999771118164 6.0649767736705655)"><path d="M-0.91 0.76 C-59.28 2.65, -292.81 10.68, -351.16 12.48 M0.81 0.12 C-57.62 2.14, -293.29 8.46, -352.04 10.54" stroke="black" stroke-width="2" fill="none"></path></g><g transform="translate(934.0874938964844 404.35081834720324) rotate(0 -175.64999771118164 6.0649767736705655)"><path d="M-324.18 -0.58 C-328.93 1.88, -335.75 4.5, -352.04 10.54 M-324.18 -0.58 C-331.86 2.51, -337.64 5.39, -352.04 10.54" stroke="black" stroke-width="2" fill="none"></path></g><g transform="translate(934.0874938964844 404.35081834720324) rotate(0 -175.64999771118164 6.0649767736705655)"><path d="M-323.55 19.93 C-328.64 17.88, -335.59 15.99, -352.04 10.54 M-323.55 19.93 C-331.53 17.84, -337.48 15.56, -352.04 10.54" stroke="black" stroke-width="2" fill="none"></path></g></g><mask id="mask-Ki-sb37V1HzQ9Co2lvmJA"><rect x="0" y="0" fill="#fff" width="1385.3874893188477" height="516.4807718945444"></rect><rect x="717.2374954223633" y="397.9157951208738" fill="#000" width="82.4000015258789" height="25" opacity="1"></rect></mask><g transform="translate(324.7416648864746 23.75) rotate(0 68.375 12.5)"><text x="68.375" y="0" font-family="Virgil, Segoe UI Emoji" font-size="20px" fill="#1e1e1e" text-anchor="middle" style="white-space: pre;" direction="ltr" dominant-baseline="text-before-edge">CLI Frontend</text></g><g transform="translate(270.6124954223633 203.75) rotate(0 73.24166870117188 12.5)"><text x="73.24166870117188" y="0" font-family="Virgil, Segoe UI Emoji" font-size="20px" fill="#1e1e1e" text-anchor="middle" style="white-space: pre;" direction="ltr" dominant-baseline="text-before-edge">Server Thread</text></g><g transform="translate(991.3083343505859 212.75) rotate(0 80.4749984741211 12.5)"><text x="80.4749984741211" y="0" font-family="Virgil, Segoe UI Emoji" font-size="20px" fill="#1e1e1e" text-anchor="middle" style="white-space: pre;" direction="ltr" dominant-baseline="text-before-edge">ProcessTXs Thread</text></g><g transform="translate(658.1749954223633 140.75) rotate(0 96.30833435058594 12.5)"><text x="96.30833435058594" y="0" font-family="Virgil, Segoe UI Emoji" font-size="20px" fill="#1e1e1e" text-anchor="middle" style="white-space: pre;" direction="ltr" dominant-baseline="text-before-edge">Transaction Queue</text></g><g transform="translate(955.6041564941406 390.75) rotate(0 132.90834045410156 12.5)"><text x="132.90834045410156" y="0" font-family="Virgil, Segoe UI Emoji" font-size="20px" fill="#1e1e1e" text-anchor="middle" style="white-space: pre;" direction="ltr" dominant-baseline="text-before-edge">Validated Transaction List</text></g><g transform="translate(470.7041645050049 416.75) rotate(0 19.808332443237305 12.5)"><text x="19.808332443237305" y="0" font-family="Virgil, Segoe UI Emoji" font-size="20px" fill="#1e1e1e" text-anchor="middle" style="white-space: pre;" direction="ltr" dominant-baseline="text-before-edge">Mint</text></g><g transform="translate(267.24166107177734 100.25) rotate(0 97.6803853047681 28.82107959817968)"><text x="101.20833587646484" y="0" font-family="Virgil, Segoe UI Emoji" font-size="20px" fill="black" text-anchor="middle" style="white-space: pre;" direction="ltr" dominant-baseline="text-before-edge">Broadcasts Transaction</text></g><g transform="translate(482.1166648864746 139.25) rotate(0 55.88529232831475 33.947186011128636)"><text x="41.33333206176758" y="0" font-family="Virgil, Segoe UI Emoji" font-size="20px" fill="black" text-anchor="middle" style="white-space: pre;" direction="ltr" dominant-baseline="text-before-edge">Enqueues</text></g><g transform="translate(1014.9541595458984 299.75) rotate(0 78.16543042004525 14.88816057589841)"><text x="81.55833435058594" y="0" font-family="Virgil, Segoe UI Emoji" font-size="20px" fill="black" text-anchor="middle" style="white-space: pre;" direction="ltr" dominant-baseline="text-before-edge">Validates and Adds</text></g><g transform="translate(717.2374954223633 397.9157951208738) rotate(0 41.23550804737954 12.732054060567208)"><text x="41.20000076293945" y="0" font-family="Virgil, Segoe UI Emoji" font-size="20px" fill="black" text-anchor="middle" style="white-space: pre;" direction="ltr" dominant-baseline="text-before-edge">When full</text></g><g mask="url(#mask-DM8K3zvyK9fJ1PwU9Kktc)" stroke-linecap="round"><g transform="translate(871.9168391401613 143.28163020945482) rotate(0 96.26657890404056 27.45220237925625)"><path d="M0.13 -0.57 C20.12 0.56, 86.86 -2.29, 118.79 6.82 C150.73 15.93, 179.52 46.11, 191.73 54.11 M-1.27 1.75 C19.21 3.02, 88.54 -0.86, 121.12 8.01 C153.69 16.89, 182.38 47.04, 194.21 55" stroke="#1e1e1e" stroke-width="2" fill="none"></path></g><g transform="translate(871.9168391401613 143.28163020945482) rotate(0 96.26657890404056 27.45220237925625)"><path d="M165.83 45.28 C170.69 46, 176.34 47.89, 194.21 55 M165.83 45.28 C173.38 47.24, 179.18 50.48, 194.21 55" stroke="#1e1e1e" stroke-width="2" fill="none"></path></g><g transform="translate(871.9168391401613 143.28163020945482) rotate(0 96.26657890404056 27.45220237925625)"><path d="M178.72 29.31 C180.95 33.31, 183.97 38.46, 194.21 55 M178.72 29.31 C183.2 34.99, 185.99 41.95, 194.21 55" stroke="#1e1e1e" stroke-width="2" fill="none"></path></g></g><mask id="mask-DM8K3zvyK9fJ1PwU9Kktc"><rect x="0" y="0" fill="#fff" width="1164.4499969482424" height="298.1860349679673"></rect><rect x="938.5249977111816" y="138.25" fill="#000" width="105.8499984741211" height="25" opacity="1"></rect></mask><g transform="translate(938.5249977111816 138.25) rotate(0 29.86357569876668 32.250044369737864)"><text x="52.92499923706055" y="0" font-family="Virgil, Segoe UI Emoji" font-size="20px" fill="#1e1e1e" text-anchor="middle" style="white-space: pre;" direction="ltr" dominant-baseline="text-before-edge">Is Dequeued</text></g><g stroke-linecap="round" transform="translate(659.9780851081312 237.5) rotate(0 113.34166717529297 26.25)"><path d="M-0.33 1.43 L228.25 -1.19 L225.63 52.95 L1.84 51.83" stroke="none" stroke-width="0" fill="#fe979b"></path><path d="M0 0 C64.97 1.91, 132.61 0.86, 226.68 0 M0 0 C74.26 0.73, 146.49 0.61, 226.68 0 M226.68 0 C225.08 13.04, 224.78 29.85, 226.68 52.5 M226.68 0 C226.46 19.72, 226.58 40.04, 226.68 52.5 M226.68 52.5 C146.85 50.4, 70.45 51.19, 0 52.5 M226.68 52.5 C153.51 50.93, 78.16 51.51, 0 52.5 M0 52.5 C-2.15 33.06, -0.04 14.19, 0 0 M0 52.5 C0.41 38.35, 0.24 23.65, 0 0" stroke="#1e1e1e" stroke-width="2" fill="none"></path></g><g mask="url(#mask-6MOFq6sFLyDTN9CxIsQNn)" stroke-linecap="round"><g transform="translate(436.18703016302345 228.22121491324248) rotate(0 108.5665074104577 12.697956338984227)"><path d="M1.13 0.33 C18.24 4.51, 66.33 20.23, 102.5 24.32 C138.67 28.41, 198.86 24.73, 218.14 24.88 M0.27 -0.55 C17.27 3.32, 65.49 17.94, 101.76 22.35 C138.03 26.76, 198.97 25.27, 217.9 25.93" stroke="black" stroke-width="2" fill="none"></path></g><g transform="translate(436.18703016302345 228.22121491324248) rotate(0 108.5665074104577 12.697956338984227)"><path d="M189.62 35.95 C198.28 33.49, 206.28 31.65, 217.9 25.93 M189.62 35.95 C196.2 33.15, 203.77 30.02, 217.9 25.93" stroke="black" stroke-width="2" fill="none"></path></g><g transform="translate(436.18703016302345 228.22121491324248) rotate(0 108.5665074104577 12.697956338984227)"><path d="M189.8 15.43 C198.28 18.82, 206.22 22.82, 217.9 25.93 M189.8 15.43 C196.51 17.9, 204.04 20.06, 217.9 25.93" stroke="black" stroke-width="2" fill="none"></path></g></g><mask id="mask-6MOFq6sFLyDTN9CxIsQNn"><rect x="0" y="0" fill="#fff" width="753.3200449839388" height="353.61712759121093"></rect><rect x="496.9530873969495" y="239.75000000000006" fill="#000" width="82.66666412353516" height="25" opacity="1"></rect></mask><g transform="translate(719.1447530463636 251.25) rotate(0 54.17499923706055 12.5)"><text x="54.17499923706055" y="0" font-family="Virgil, Segoe UI Emoji" font-size="20px" fill="#1e1e1e" text-anchor="middle" style="white-space: pre;" direction="ltr" dominant-baseline="text-before-edge">Block Queue</text></g><g transform="translate(496.9530873969495 239.75000000000006) rotate(0 48.43628553997743 1.325476992838702)"><text x="41.33333206176758" y="0" font-family="Virgil, Segoe UI Emoji" font-size="20px" fill="black" text-anchor="middle" style="white-space: pre;" direction="ltr" dominant-baseline="text-before-edge">Enqueues</text></g><g mask="url(#mask-azPwRRtUZOpsrIiIdicRU)" stroke-linecap="round"><g transform="translate(800.3722710813583 295.140949972048) rotate(0 -120.94311441164726 53.04845420760131)"><path d="M1.06 -0.13 C-10.41 6.42, -27.27 21.26, -67.82 38.8 C-108.37 56.34, -213.34 94.03, -242.26 105.13 M0.16 -1.25 C-11.01 5.53, -24.93 22.31, -65.49 40.18 C-106.06 58.04, -214 94.95, -243.23 105.94" stroke="#1e1e1e" stroke-width="2" fill="none"></path></g><g transform="translate(800.3722710813583 295.140949972048) rotate(0 -120.94311441164726 53.04845420760131)"><path d="M-220.17 86.75 C-229.32 93.1, -238.47 101.06, -243.23 105.94 M-220.17 86.75 C-225.68 90.08, -229.38 95.93, -243.23 105.94" stroke="#1e1e1e" stroke-width="2" fill="none"></path></g><g transform="translate(800.3722710813583 295.140949972048) rotate(0 -120.94311441164726 53.04845420760131)"><path d="M-213.23 106.06 C-224.96 105.06, -236.77 105.6, -243.23 105.94 M-213.23 106.06 C-220.34 105.11, -225.57 106.73, -243.23 105.94" stroke="#1e1e1e" stroke-width="2" fill="none"></path></g></g><mask id="mask-azPwRRtUZOpsrIiIdicRU"><rect x="0" y="0" fill="#fff" width="1142.2584999046528" height="501.23785838725064"></rect><rect x="680.3614202216565" y="321.75" fill="#000" width="105.8499984741211" height="25" opacity="1"></rect></mask><g transform="translate(680.3614202216565 321.75) rotate(0 -1.0722605439691222 25.73709279797029)"><text x="52.92499923706055" y="0" font-family="Virgil, Segoe UI Emoji" font-size="20px" fill="#1e1e1e" text-anchor="middle" style="white-space: pre;" direction="ltr" dominant-baseline="text-before-edge">Is Dequeued</text></g><g mask="url(#mask-mG2x7bWQRiiUHFax9miG-)" stroke-linecap="round"><g transform="translate(407.60291764317896 393.8661407115782) rotate(0 -26.482666937761927 -75.0460095624957)"><path d="M-0.06 0.89 C-4.23 -9.21, -16.14 -34.64, -24.98 -59.83 C-33.82 -85.02, -48.23 -135.36, -53.09 -150.23 M-1.55 0.31 C-5.35 -9.73, -14.03 -33.95, -22.76 -58.83 C-31.49 -83.72, -48.64 -133.61, -53.91 -148.98" stroke="black" stroke-width="2" fill="none"></path></g><g transform="translate(407.60291764317896 393.8661407115782) rotate(0 -26.482666937761927 -75.0460095624957)"><path d="M-35.05 -125.65 C-39.42 -134.29, -48.33 -139.99, -53.91 -148.98 M-35.05 -125.65 C-39.87 -132.56, -44.93 -138.42, -53.91 -148.98" stroke="black" stroke-width="2" fill="none"></path></g><g transform="translate(407.60291764317896 393.8661407115782) rotate(0 -26.482666937761927 -75.0460095624957)"><path d="M-54.45 -118.98 C-52.99 -129.62, -56.03 -137.35, -53.91 -148.98 M-54.45 -118.98 C-53.61 -127.98, -53.06 -135.77, -53.91 -148.98" stroke="black" stroke-width="2" fill="none"></path></g></g><mask id="mask-mG2x7bWQRiiUHFax9miG-"><rect x="0" y="0" fill="#fff" width="560.5682515187028" height="643.9581598365696"></rect><rect x="308.79973062250036" y="322.56470764651664" fill="#000" width="149.51666259765625" height="25" opacity="1"></rect></mask><g transform="translate(308.79973062250036 322.56470764651664) rotate(0 71.81674395475495 -3.365662185533381)"><text x="74.75833129882812" y="0" font-family="Virgil, Segoe UI Emoji" font-size="20px" fill="black" text-anchor="middle" style="white-space: pre;" direction="ltr" dominant-baseline="text-before-edge">Broadcasts Block</text></g><g stroke-linecap="round" transform="translate(10 185.5) rotate(0 92.44999694824219 33.25)"><path d="M-0.71 0.61 L185.47 0.79 L186.8 65.64 L-0.15 65.19" stroke="none" stroke-width="0" fill="#fe979b"></path><path d="M0 0 C54.2 0.88, 106.75 0.17, 184.9 0 M0 0 C73.16 -1.3, 144.21 -1.51, 184.9 0 M184.9 0 C183.37 23.7, 183.75 43.18, 184.9 66.5 M184.9 0 C185.54 13.18, 185.93 27.75, 184.9 66.5 M184.9 66.5 C137.99 65.26, 91.59 67.34, 0 66.5 M184.9 66.5 C125.44 66.43, 66.83 66.98, 0 66.5 M0 66.5 C1.02 41.86, -1.21 21.01, 0 0 M0 66.5 C-0.17 49.03, 0.77 30.53, 0 0" stroke="#1e1e1e" stroke-width="2" fill="none"></path></g><g transform="translate(29.491661071777344 206.25) rotate(0 72.95833587646484 12.5)"><text x="72.95833587646484" y="0" font-family="Virgil, Segoe UI Emoji" font-size="20px" fill="#1e1e1e" text-anchor="middle" style="white-space: pre;" direction="ltr" dominant-baseline="text-before-edge">CLI Shared State</text></g><g mask="url(#mask-UFpfnG6iD8B8SQanVU1F-)" stroke-linecap="round"><g transform="translate(396.8816228856232 436.9247182135186) rotate(0 -143.76143661651588 -90.2330810752712)"><path d="M-0.45 1.16 C-37.6 -0.98, -174.43 17.32, -222.4 -12.85 C-270.38 -43.02, -277.64 -152.03, -288.31 -179.85 M1.51 0.72 C-35.78 -1.27, -175.13 18.76, -223.02 -11.67 C-270.91 -42.1, -274.8 -153.49, -285.83 -181.87" stroke="black" stroke-width="2" fill="none"></path></g><g transform="translate(396.8816228856232 436.9247182135186) rotate(0 -143.76143661651588 -90.2330810752712)"><path d="M-269.86 -156.47 C-273.32 -164.04, -281.77 -175.01, -285.83 -181.87 M-269.86 -156.47 C-275.95 -164.44, -281.57 -174.17, -285.83 -181.87" stroke="black" stroke-width="2" fill="none"></path></g><g transform="translate(396.8816228856232 436.9247182135186) rotate(0 -143.76143661651588 -90.2330810752712)"><path d="M-289.92 -152.15 C-286.61 -161.11, -288.28 -173.53, -285.83 -181.87 M-289.92 -152.15 C-289 -161.75, -287.58 -173, -285.83 -181.87" stroke="black" stroke-width="2" fill="none"></path></g></g><mask id="mask-UFpfnG6iD8B8SQanVU1F-"><rect x="0" y="0" fill="#fff" width="784.404496118655" height="717.390880364061"></rect><rect x="119.4277158483032" y="412.2491421229061" fill="#000" width="108.81666564941406" height="25" opacity="1"></rect></mask><g transform="translate(119.4277158483032 412.24914212290605) rotate(0 134.0528384740001 -63.577272828805064)"><text x="54.40833282470703" y="0" font-family="Virgil, Segoe UI Emoji" font-size="20px" fill="black" text-anchor="middle" style="white-space: pre;" direction="ltr" dominant-baseline="text-before-edge">Writes Block</text></g><g mask="url(#mask-Gqc0n8VTNbJrTrUKZeeD1)" stroke-linecap="round"><g transform="translate(306.6900909768484 30.956470546795074) rotate(0 -101.58709525879914 73.11122492751261)"><path d="M-0.82 -1.11 C-34.54 6.72, -167.67 21.87, -201.33 46.5 C-234.99 71.13, -202.3 129.95, -202.78 146.68 M0.95 0.93 C-33.02 8.91, -168.27 23.59, -202.32 47.53 C-236.37 71.47, -202.97 128.39, -203.35 144.58" stroke="black" stroke-width="2" fill="none"></path></g><g transform="translate(306.6900909768484 30.956470546795074) rotate(0 -101.58709525879914 73.11122492751261)"><path d="M-220.29 119.83 C-215.72 129.29, -209 139.58, -203.35 144.58 M-220.29 119.83 C-215.07 127.82, -209.7 135.97, -203.35 144.58" stroke="black" stroke-width="2" fill="none"></path></g><g transform="translate(306.6900909768484 30.956470546795074) rotate(0 -101.58709525879914 73.11122492751261)"><path d="M-200.41 114.73 C-203.49 126.01, -204.39 138.26, -203.35 144.58 M-200.41 114.73 C-201.96 124.56, -203.33 134.43, -203.35 144.58" stroke="black" stroke-width="2" fill="none"></path></g></g><mask id="mask-Gqc0n8VTNbJrTrUKZeeD1"><rect x="0" y="0" fill="#fff" width="609.8642814944467" height="277.1789204018203"></rect><rect x="79.81666374206544" y="65.9289204018202" fill="#000" width="51.266666412353516" height="25" opacity="1"></rect></mask><g transform="translate(79.81666374206543 65.92892040182022) rotate(0 118.52962094827912 37.816358292716004)"><text x="25.633333206176758" y="0" font-family="Virgil, Segoe UI Emoji" font-size="20px" fill="black" text-anchor="middle" style="white-space: pre;" direction="ltr" dominant-baseline="text-before-edge">Reads</text></g></svg>